# xmcd
# 
# Track frame offsets:
#     150
#     17386
#     29822
#     40850
#     53563
#     65745
#     80269
#     91637
#     105814
#     115786
#     129390
#     138823
#     148596
#     159108
# 
# Disc length: 2241
# 
# Revision: 2
# Processed by: cddbd v1.5.2PL0 Copyright (c) Steve Scherf et al.
# Submitted via: BonkEnc v1.0.15
# 
DISCID=a008bf0e
DTITLE=Various Artist - Cool Christmas Jazz
DYEAR=1998
DGENRE=Christmas
TTITLE0=Favorite Things
TTITLE1=Have Yourself A Merry Little Christmas
TTITLE2=Go Tell It On The Mountain
TTITLE3=Jingle Bells
TTITLE4=Away in a Manger
TTITLE5=Hark, The Herald Angels Sing
TTITLE6=Up On The Housetop
TTITLE7=It Came Upon a Midnight Clear
TTITLE8=Santa Claus is Coming to Town
TTITLE9=O Little Town of Bethlehem
TTITLE10=God Rest Ye Merry Gentlemen
TTITLE11=Let It Snow
TTITLE12=Silent Night
TTITLE13=Jolly Old St. Nick
EXTD=
EXTT0=
EXTT1=
EXTT2=
EXTT3=
EXTT4=
EXTT5=
EXTT6=
EXTT7=
EXTT8=
EXTT9=
EXTT10=
EXTT11=
EXTT12=
EXTT13=
PLAYORDER=
